<svg width="50" height="50" xmlns="http://www.w3.org/2000/svg">

 <g>
  <title>background</title>
  <rect fill="none" id="canvas_background" height="402" width="582" y="-1" x="-1"/>
 </g>
 <g>
  <title>Layer 1</title>
  <path id="_x29__5_" fill="#2e9fff" d="m35.7,34.3c-0.1,0 -0.3,0 -0.4,0.1c-0.2,0.1 -0.3,0.1 -0.5,0.2l-0.2,0.1l-0.3,0.1l0,0c-3.3,1.3 -7.3,2.2 -10.3,2.2s-8.8,-2.3 -12.9,-4.6c-0.1,-0.1 -0.3,-0.1 -0.4,-0.1c-0.2,0 -0.4,0.1 -0.5,0.2s-0.2,0.3 -0.2,0.5c0,0.2 0.1,0.5 0.3,0.6c3.8,3.3 8.7,6.4 13.7,6.4c5,0 7.8,-1.3 10.9,-3.3l0,0c0.4,-0.2 0.7,-0.4 1,-0.7c0.2,-0.2 0.6,-0.6 0.6,-0.8c0.1,-0.6 -0.4,-0.9 -0.8,-0.9z"/>
  <path id="_x3E__5_" fill="#2e9fff" d="m40,32.5l0,0c0,-0.3 -0.1,-0.6 -0.2,-0.8l0,0l0,0c-0.1,-0.1 -0.3,-0.2 -0.4,-0.3c-0.4,-0.2 -1,-0.2 -1.7,-0.2c-0.5,0 -1.1,0 -1.7,0.2l0,0l-0.6,0.2l0,0l-0.3,0.1l0,0c-0.4,0.2 -0.7,0.4 -1.1,0.6c-0.2,0.2 -0.4,0.4 -0.4,0.7c0,0.2 0.1,0.4 0.2,0.5s0.3,0.2 0.4,0.2c0,0 0.1,0 0.1,0l0,0l0,0c0.3,-0.1 0.7,-0.1 1.2,-0.2c0.4,0 0.9,-0.1 1.2,-0.1c0.3,0 0.5,0 0.7,0.1c0.1,0 0.1,0 0.2,0.1c0,0 0,0 0,0c0,0 0,0.1 0,0.2c0,0.3 -0.1,0.9 -0.3,1.5c-0.2,0.6 -0.4,1.2 -0.5,1.5c0,0.1 -0.1,0.2 -0.1,0.3c0,0.2 0.1,0.3 0.2,0.5s0.3,0.2 0.4,0.2l0,0c0.2,0 0.4,-0.1 0.5,-0.2c1.5,-1.3 2,-3.4 2,-4.6l0.2,-0.5z"/>
  <path id="svg_1" fill="#2e9fff" d="m25,1c-13.3,0 -24,10.7 -24,24s10.7,24 24,24s24,-10.7 24,-24s-10.7,-24 -24,-24zm0,43c-10.5,0 -19,-8.5 -19,-19s8.5,-19 19,-19s19,8.5 19,19s-8.5,19 -19,19z"/>
  <text font-style="italic" font-weight="bold" xml:space="preserve" text-anchor="start" font-family="Arvo, sans-serif" font-size="18" id="svg_2" y="30.02104" x="9.376914" stroke-opacity="null" stroke-width="0" stroke="null" fill="#2e9fff">DN</text>
 </g>
</svg>