<svg width="64" height="64" xmlns="http://www.w3.org/2000/svg">

 <g>
  <title>background</title>
  <rect fill="none" id="canvas_background" height="402" width="582" y="-1" x="-1"/>
 </g>
 <g>
  <title>Layer 1</title>
  <path fill="#ffffff" id="svg_1" d="m63.059,40.525c0,-3.109 -2.088,-5.877 -5.077,-6.73l-8.923,-2.549l0,-2.61c1.093,-0.999 1.938,-2.261 2.435,-3.688c1.222,-0.123 2.373,-0.668 3.206,-1.585c0.836,-0.919 1.269,-2.125 1.272,-3.363l0.028,0l0,-6c0,-7.168 -5.832,-13 -13,-13s-13,5.832 -13,13l0,6l0.028,0c0.003,1.239 0.437,2.444 1.272,3.363c0.833,0.916 1.984,1.461 3.206,1.585c0.506,1.453 1.372,2.734 2.494,3.741l0,2.557l-8.923,2.549c-2.989,0.853 -5.077,3.621 -5.077,6.73l0,5.296c-0.633,-0.162 -1.231,-0.466 -1.707,-0.942l-2.172,-2.172c-0.712,-0.713 -1.121,-1.699 -1.121,-2.707s0.409,-1.994 1.121,-2.707l1.173,-1.174c1.1,-1.099 1.706,-2.561 1.706,-4.116l0,-0.191c0,-1.41 -0.512,-2.771 -1.44,-3.833l-4.366,-4.99c-1.107,-1.264 -2.703,-1.989 -4.382,-1.989c-1.411,0 -2.772,0.512 -3.834,1.44l-3.773,3.302c-2.037,1.782 -3.205,4.356 -3.205,7.062c0,1.608 0.417,3.199 1.205,4.601c5.267,9.363 12.896,17.274 22.064,22.877l2.25,1.375c1.439,0.878 3.09,1.343 4.777,1.343c2.643,0 5.156,-1.141 6.895,-3.129l3.368,-3.85c0.929,-1.061 1.441,-2.422 1.441,-3.833c0,-0.403 -0.044,-0.801 -0.125,-1.188l20.184,0l0,-10.475zm-10.879,-6.307l-3.468,6.241l-4.231,-3.526l3.823,-3.823l3.876,1.108zm1.04,-12.2c-0.345,0.379 -0.785,0.646 -1.262,0.808c0.025,-0.273 0.042,-0.547 0.042,-0.826l0,-4.785c1.076,0.408 1.878,1.356 1.986,2.487c0.082,0.86 -0.19,1.683 -0.766,2.316zm-10.22,-19.018c6.065,0 11,4.935 11,11l0,2.085c-0.885,-0.67 -1.984,-1.085 -3.172,-1.085l-0.585,0c-2.469,0 -4.79,-0.961 -6.536,-2.707l-0.707,-0.707l-0.707,0.707c-1.746,1.746 -4.067,2.707 -6.536,2.707l-0.757,0l0,0.003c-1.123,0.036 -2.158,0.444 -3,1.082l0,-2.085c0,-6.065 4.935,-11 11,-11zm-10.22,19.018c-0.576,-0.633 -0.848,-1.455 -0.766,-2.315c0.108,-1.131 0.91,-2.079 1.986,-2.487l0,4.784c0,0.279 0.017,0.553 0.042,0.826c-0.477,-0.163 -0.917,-0.429 -1.262,-0.808zm3.22,-0.018l0,-5.011c2.59,-0.055 5.037,-0.973 7,-2.632c1.963,1.659 4.41,2.577 7,2.632l0,5.011c0,3.859 -3.14,7 -7,7s-7,-3.141 -7,-7zm7,9c1.461,0 2.837,-0.357 4.059,-0.978l0,1.505l-4.059,4.059l-4,-4l0,-1.536c1.207,0.603 2.562,0.95 4,0.95zm-5.291,2.123l3.81,3.81l-4.231,3.526l-3.459,-6.227l3.88,-1.109zm-23.021,-8.818l4.366,4.99c0.61,0.697 0.946,1.591 0.946,2.517l0,0.191c0,0.464 -0.092,0.911 -0.25,1.334l-9.828,-9.829c0.573,-0.328 1.222,-0.508 1.89,-0.508c1.102,0 2.15,0.476 2.876,1.305zm21.999,34.25c-1.36,1.553 -3.325,2.445 -5.391,2.445c-1.319,0 -2.61,-0.363 -3.734,-1.051l-2.25,-1.375c-8.876,-5.425 -16.264,-13.084 -21.364,-22.15c-0.62,-1.103 -0.948,-2.355 -0.948,-3.62c0,-2.129 0.919,-4.154 2.521,-5.556l2.834,-2.479l10.231,10.231l-0.878,0.879c-1.086,1.085 -1.708,2.587 -1.708,4.121s0.622,3.036 1.707,4.121l2.172,2.172c1.1,1.101 2.564,1.707 4.121,1.707s3.021,-0.606 4.121,-1.707l0.879,-0.879l10.232,10.232l-2.545,2.909zm3.806,-4.476l-9.829,-9.829c0.422,-0.157 0.87,-0.25 1.334,-0.25l0.19,0c0.926,0 1.82,0.336 2.517,0.946l4.99,4.366c0.829,0.725 1.305,1.774 1.305,2.876c0,0.669 -0.181,1.318 -0.507,1.891zm20.566,-5.079l-6.029,0l0,-7l-2,0l0,7l-10.99,0c-0.287,-0.437 -0.627,-0.842 -1.028,-1.193l-4.989,-4.366c-1.063,-0.929 -2.424,-1.441 -3.835,-1.441l-0.19,0c-1.555,0 -3.017,0.605 -4.117,1.705l-1.173,1.174c-0.477,0.476 -1.074,0.78 -1.707,0.942l0,-5.296c0,-2.221 1.491,-4.197 3.626,-4.807l3.228,-0.922l4.858,8.745l5.287,-4.406l0,7.865l2,0l0,-7.865l5.288,4.406l4.866,-8.759l3.279,0.937c2.135,0.609 3.626,2.586 3.626,4.807l0,8.474z"/>
 </g>
</svg>