<svg width="24" height="24" xmlns="http://www.w3.org/2000/svg">

 <g>
  <title>background</title>
  <rect fill="none" id="canvas_background" height="402" width="582" y="-1" x="-1"/>
 </g>
 <g>
  <title>Layer 1</title>
  <path fill="#ffffff" id="svg_2" d="m23,10l-2,-4c-0.2,-0.5 -0.7,-1 -1.3,-1l-3.7,0c0,-0.6 -0.4,-1 -1,-1l-14,0c-0.6,0 -1,0.4 -1,1l0,12c0,0.6 0.4,1 1,1l2.2,0c0.4,1.2 1.5,2 2.8,2s2.4,-0.8 2.8,-2l7.2,0l0.2,0c0.4,1.2 1.5,2 2.8,2s2.4,-0.8 2.8,-2l1.2,0c0.6,0 1,-0.4 1,-1l0,-6c0,-0.6 -0.4,-1 -1,-1zm-17,9c-1.1,0 -2,-0.9 -2,-2s0.9,-2 2,-2s2,0.9 2,2s-0.9,2 -2,2zm9,-3l-6.2,0c-0.4,-1.2 -1.5,-2 -2.8,-2s-2.4,0.8 -2.8,2l-1.2,0l0,-3l13,0l0,3zm0,-4l-13,0l0,-6l13,0l0,6zm1,-5l3.5,0l1.5,3l-5,0l0,-3zm3,12c-1.1,0 -2,-0.9 -2,-2s0.9,-2 2,-2s2,0.9 2,2s-0.9,2 -2,2zm3,-3l-0.2,0c-0.4,-1.2 -1.5,-2 -2.8,-2s-2.4,0.8 -2.8,2l-0.2,0l0,-5l6,0l0,5z"/>
  <circle fill="#ffffff" id="svg_3" r="1" cy="21" cx="6"/>
  <circle fill="#ffffff" id="svg_4" r="1" cy="21" cx="19"/>
 </g>
</svg>